<svg xmlns="http://www.w3.org/2000/svg" width="369" height="369" viewBox="0 0 369 369" fill="none"><circle cx="184.5" cy="184.5" r="184.5" fill="url(#paint0_linear)"></circle><rect x="105.546" y="51.276" width="2.78588" height="11.9395" rx="1.39294" transform="rotate(-30 105.546 51.276)" fill="#F5F5DC"></rect><rect x="254.391" y="309.084" width="2.78588" height="11.9395" rx="1.39294" transform="rotate(-30 254.391 309.084)" fill="#F5F5DC"></rect><rect x="49.4019" y="109.102" width="2.78588" height="11.9395" rx="1.39294" transform="rotate(-60 49.4019 109.102)" fill="#F5F5DC"></rect><rect x="307.21" y="257.948" width="2.78588" height="11.9395" rx="1.39294" transform="rotate(-60 307.21 257.948)" fill="#F5F5DC"></rect><rect x="107.614" y="320.431" width="2.78588" height="11.9395" rx="1.39294" transform="rotate(-150 107.614 320.431)" fill="#F5F5DC"></rect><rect x="256.459" y="62.6233" width="2.78588" height="11.9395" rx="1.39294" transform="rotate(-150 256.459 62.6233)" fill="#F5F5DC"></rect><rect x="50.4378" y="264.275" width="2.78588" height="11.9395" rx="1.39294" transform="rotate(-120 50.4378 264.275)" fill="#F5F5DC"></rect><rect x="308.246" y="115.429" width="2.78588" height="11.9395" rx="1.39294" transform="rotate(-120 308.246 115.429)" fill="#F5F5DC"></rect><path d="M172.81 35.87V31.1H181.12V53H175.78V35.87H172.81ZM184.449 48.89C185.129 48.35 185.439 48.1 185.379 48.14C187.339 46.52 188.879 45.19 189.999 44.15C191.139 43.11 192.099 42.02 192.879 40.88C193.659 39.74 194.049 38.63 194.049 37.55C194.049 36.73 193.859 36.09 193.479 35.63C193.099 35.17 192.529 34.94 191.769 34.94C191.009 34.94 190.409 35.23 189.969 35.81C189.549 36.37 189.339 37.17 189.339 38.21H184.389C184.429 36.51 184.789 35.09 185.469 33.95C186.169 32.81 187.079 31.97 188.199 31.43C189.339 30.89 190.599 30.62 191.979 30.62C194.359 30.62 196.149 31.23 197.349 32.45C198.569 33.67 199.179 35.26 199.179 37.22C199.179 39.36 198.449 41.35 196.989 43.19C195.529 45.01 193.669 46.79 191.409 48.53H199.509V52.7H184.449V48.89Z" fill="#F5F5DC"></path><path d="M325.603 183.757C325.683 181.617 326.383 179.967 327.703 178.807C329.023 177.647 330.813 177.067 333.073 177.067C334.573 177.067 335.853 177.327 336.913 177.847C337.993 178.367 338.803 179.077 339.343 179.977C339.903 180.877 340.183 181.887 340.183 183.007C340.183 184.327 339.853 185.407 339.193 186.247C338.533 187.067 337.763 187.627 336.883 187.927V188.047C338.023 188.427 338.923 189.057 339.583 189.937C340.243 190.817 340.573 191.947 340.573 193.327C340.573 194.567 340.283 195.667 339.703 196.627C339.143 197.567 338.313 198.307 337.213 198.847C336.133 199.387 334.843 199.657 333.343 199.657C330.943 199.657 329.023 199.067 327.583 197.887C326.163 196.707 325.413 194.927 325.333 192.547H330.313C330.333 193.427 330.583 194.127 331.063 194.647C331.543 195.147 332.243 195.397 333.163 195.397C333.943 195.397 334.543 195.177 334.963 194.737C335.403 194.277 335.623 193.677 335.623 192.937C335.623 191.977 335.313 191.287 334.693 190.867C334.093 190.427 333.123 190.207 331.783 190.207H330.823V186.037H331.783C332.803 186.037 333.623 185.867 334.243 185.527C334.883 185.167 335.203 184.537 335.203 183.637C335.203 182.917 335.003 182.357 334.603 181.957C334.203 181.557 333.653 181.357 332.953 181.357C332.193 181.357 331.623 181.587 331.243 182.047C330.883 182.507 330.673 183.077 330.613 183.757H325.603Z" fill="#F5F5DC"></path><path d="M187.04 328.509C186.88 327.769 186.6 327.219 186.2 326.859C185.8 326.479 185.23 326.289 184.49 326.289C183.35 326.289 182.53 326.789 182.03 327.789C181.53 328.769 181.27 330.329 181.25 332.469C181.69 331.769 182.32 331.219 183.14 330.819C183.98 330.419 184.9 330.219 185.9 330.219C187.86 330.219 189.43 330.839 190.61 332.079C191.81 333.319 192.41 335.049 192.41 337.269C192.41 338.729 192.11 340.009 191.51 341.109C190.93 342.209 190.07 343.069 188.93 343.689C187.81 344.309 186.48 344.619 184.94 344.619C181.86 344.619 179.72 343.659 178.52 341.739C177.32 339.799 176.72 337.019 176.72 333.399C176.72 329.599 177.35 326.779 178.61 324.939C179.89 323.079 181.93 322.149 184.73 322.149C186.23 322.149 187.49 322.449 188.51 323.049C189.55 323.629 190.33 324.399 190.85 325.359C191.39 326.319 191.71 327.369 191.81 328.509H187.04ZM184.67 334.269C183.81 334.269 183.09 334.529 182.51 335.049C181.95 335.549 181.67 336.269 181.67 337.209C181.67 338.169 181.93 338.919 182.45 339.459C182.99 339.999 183.75 340.269 184.73 340.269C185.61 340.269 186.3 340.009 186.8 339.489C187.32 338.949 187.58 338.219 187.58 337.299C187.58 336.359 187.33 335.619 186.83 335.079C186.33 334.539 185.61 334.269 184.67 334.269Z" fill="#F5F5DC"></path><path d="M35.87 193.057C36.17 194.637 37.09 195.427 38.63 195.427C39.69 195.427 40.44 194.957 40.88 194.017C41.32 193.077 41.54 191.547 41.54 189.427C41.1 190.047 40.5 190.527 39.74 190.867C38.98 191.207 38.13 191.377 37.19 191.377C35.91 191.377 34.77 191.117 33.77 190.597C32.77 190.057 31.98 189.267 31.4 188.227C30.84 187.167 30.56 185.887 30.56 184.387C30.56 182.907 30.86 181.617 31.46 180.517C32.08 179.417 32.95 178.567 34.07 177.967C35.21 177.367 36.55 177.067 38.09 177.067C41.05 177.067 43.12 177.987 44.3 179.827C45.48 181.667 46.07 184.377 46.07 187.957C46.07 190.557 45.83 192.707 45.35 194.407C44.89 196.087 44.1 197.367 42.98 198.247C41.88 199.127 40.37 199.567 38.45 199.567C36.93 199.567 35.63 199.267 34.55 198.667C33.49 198.067 32.67 197.277 32.09 196.297C31.53 195.317 31.21 194.237 31.13 193.057H35.87ZM38.36 187.327C39.2 187.327 39.87 187.077 40.37 186.577C40.87 186.057 41.12 185.357 41.12 184.477C41.12 183.517 40.86 182.777 40.34 182.257C39.82 181.737 39.12 181.477 38.24 181.477C37.36 181.477 36.66 181.747 36.14 182.287C35.64 182.807 35.39 183.527 35.39 184.447C35.39 185.307 35.64 186.007 36.14 186.547C36.66 187.067 37.4 187.327 38.36 187.327Z" fill="#F5F5DC"></path><defs><linearGradient id="paint0_linear" x1="42" y1="68.5" x2="318.5" y2="316.5" gradientUnits="userSpaceOnUse"><stop stop-color="#252629"></stop><stop offset="1" stop-color="#2C2D31"></stop></linearGradient></defs></svg>